<?xml version="1.0" encoding="utf-8"?>
<!-- Generator: Adobe Illustrator 23.1.0, SVG Export Plug-In . SVG Version: 6.00 Build 0)  -->
<svg version="1.1" id="Layer_1" xmlns="http://www.w3.org/2000/svg" xmlns:xlink="http://www.w3.org/1999/xlink" x="0px" y="0px"
	 viewBox="0 0 202.4 134.9" style="enable-background:new 0 0 202.4 134.9;" xml:space="preserve">
<style type="text/css">
	.st0{fill:#FFFFFF;}
	.st1{fill:#646464;}
</style>
<g>
	<g>
		<g>
			<g>
				<path class="st0" d="M94.6,84.7c3.7,8.2,8.3,16,13.8,23.4c1.3,1.8,2.7,3.6,4.2,5.3c0.7,0.8,1.4,1.6,2.1,2.4
					c0.6,0.7,1.4,2.1,2.5,2.4c0.9,0.2,2-0.4,2.8-0.7c1.3-0.5,2.7-0.9,4-1.4c2-0.7,4.8-1.3,6-3c1.2-1.7,0.4-4-2-4.6
					c-1.2-0.3-2.4-0.1-3.5,0.3c-1.2,0.5-2.5,1.5-3.8,1.2c0.3,0.2,0.6,0.4,0.9,0.6c-1-1.2-1.6-2.6-2.3-3.9c-0.9-1.6-1.8-3.2-2.6-4.7
					c-1.8-3.2-3.5-6.5-5.1-9.8c-3.2-6.6-5.9-13.3-7.6-20.3c-1-3.9-1.6-7.9-1.8-11.9c-0.9,0.2-1.9,0.4-2.8,0.6
					c1.9,2.9,4.5,5.4,7.2,7.7c2.8,2.4,6.8,6.1,11.3,5.2c4-0.8,5.5-5.2,3.3-8c-0.8-1.1-2.5-1.9-4-1.6c-0.9,0.2-1.8,0.4-2.7,0.6
					c0.4,0,0.8,0.1,1.2,0.1c-3-1.6-5.2-4.1-7.1-6.6c-1-1.3-2.1-2.6-2.7-4.1c-0.6-1.4-0.8-2.9-1.1-4.4c-0.4-2.8-0.7-5.6-2-8.3
					c-0.6-1.2-1.4-2.3-2.6-3.2c-0.7-0.6-1.3-1-2-1.7c0.1,0.4,0.3,0.8,0.4,1.2c0.4-1.3,2.9-1.7,4-2.5c0.7-0.5,1.1-1.1,1.4-1.8
					c0.3-0.8,0.3-1.6,0.6-2.3c0.3-0.6,1-1,1.3-1.5c0.5-0.8,0.4-1.7,0-2.4c-0.3-0.6-0.7-1.1-0.6-1.8c0.1-0.6,0.4-1.2,0.6-1.7
					c0.5-1.5,0.8-3.1,0-4.5c-0.8-1.5-2.2-2.5-3.9-3.1c-3.6-1.4-7.9-1.7-10.7,1.1c-3.2,3.2-2.9,7.6-2.3,11.5c0.2,1.6,2.9,1.7,3,0
					c0-0.1,0-0.1,0-0.1c-1,0.1-2,0.2-2.9,0.3c0.8,2.4-0.3,4.5-1.7,6.5c0.9,0.4,1.7,0.9,2.6,1.3c0.1-0.1,0.1-0.3,0.2-0.4
					c0.6-1.2-1.2-2.8-2.4-1.6c-7.3,7.7-12.2,17-14.2,26.7c-0.2,1.2-0.3,2.4-0.6,3.6c-0.3,0.9-0.7,1.9-1,2.8
					c-0.8,2.2-1.7,4.9,0.5,6.7c1.7,1.4,4.3,1,5.3-0.7c1-1.7,2.4-3.3,2.8-5.3c0.2-1.2,0.3-2.3,0.6-3.5c0.3-1.3,0.7-2.7,1.2-4
					c1.1-2.8,2.6-5.5,4.4-8.1c1-1.4-1.6-2.7-2.6-1.3c-2.8,3.8-4.8,8.1-5.9,12.5c-0.5,1.9-0.5,3.9-1.4,5.7c-0.4,0.7-0.9,1.3-1.3,2
					c-0.2,0.2-0.3,0.5-0.4,0.8c-0.1,0.1-0.1,0.3-0.2,0.4c-0.1,0.1,0.1,0,0-0.1c-0.1-0.1-0.3-0.1-0.5-0.3c-0.1-0.2-0.2-0.4-0.3-0.6
					c-0.1-0.5,0-0.9,0.1-1.4c0.3-1.3,0.9-2.5,1.3-3.8c0.6-1.7,0.8-3.6,1.1-5.3c0.9-4.3,2.4-8.4,4.5-12.4c2.3-4.5,5.2-8.7,8.8-12.5
					c-0.8-0.5-1.6-1-2.4-1.6c-0.1,0.1-0.1,0.3-0.2,0.4c-0.8,1.5,1.6,2.8,2.6,1.3c1.8-2.6,3-5.4,2-8.5c-0.4-1.4-2.9-1.1-2.9,0.3
					c0,0.1,0,0.1,0,0.1c1,0,2,0,3,0c-0.5-3.3-1.3-8.5,2.7-10.6c1.9-1,4.6-0.3,6.5,0.5c0.8,0.4,1.6,0.9,1.9,1.6
					c0.4,0.8,0.2,1.7-0.1,2.6c-0.4,1.4-1,2.7-0.6,4.1c0.1,0.4,0.4,0.8,0.6,1.2c0.3,0.5,0.2,0.3-0.1,0.7c-0.6,0.8-1.2,1.3-1.4,2.2
					c-0.2,0.8-0.2,1.7-0.9,2.3c-0.7,0.6-1.8,0.8-2.6,1.2c-1.5,0.8-3.3,2.4-2,3.9c0.8,1,2,1.5,2.8,2.5c1.2,1.3,1.7,3,2.1,4.6
					c0.9,3.6,0.7,7.5,2.6,10.9c1,1.7,2.3,3.4,3.7,4.9c1.3,1.5,2.6,2.9,4.3,4.2c0.7,0.5,1.6,1.2,2.4,1.6c0.6,0.2,1.2,0.1,1.8,0
					c0.6-0.1,1.1-0.2,1.7-0.3c0.1,0,0.4-0.1,0.5-0.1c-0.3,0,0.4,0.4,0.5,0.4c1.3,1.2,0.6,3.8-1.3,4.2c-2.4,0.6-4.9-1.5-6.5-2.7
					c-3.3-2.6-6.6-5.5-8.8-8.9c-0.7-1.1-2.9-0.6-2.8,0.6c0.5,10,3.5,19.6,7.6,28.9c2.1,4.7,4.5,9.3,6.9,13.9
					c1.2,2.2,2.4,4.4,3.7,6.7c0.5,0.8,0.8,1.8,1.5,2.5c0.8,0.9,2.1,1,3.3,0.7c1.5-0.3,2.7-1.3,4.2-1.6c0.4-0.1,0.9-0.1,1.1,0.3
					c0.3,0.5-0.6,1-1,1.2c-1.5,0.7-3.2,1.2-4.7,1.7c-0.7,0.3-1.5,0.5-2.2,0.8c-0.6,0.2-1.5,0.7-2.1,0.8c0.4,0.2,0.9,0.4,1.3,0.6
					c-8.9-9.8-16.1-20.8-21.3-32.4C96.8,82.4,93.8,83.1,94.6,84.7L94.6,84.7z"/>
			</g>
		</g>
		<g>
			<g>
				<path class="st0" d="M81.6,55.5c-1,3.5-1.4,7-1.4,10.6c0,2,0,3.9-0.3,5.9c-0.2,1.9-0.5,3.8-0.8,5.7c-1.1,8-2.5,15.9-4.1,23.9
					c-0.8,4.4-1.7,8.7-2.7,13.1c-0.1,0.5,0.1,1.2,0.7,1.4c1.9,0.9,4,1.6,6.1,2.3c2.8,1,5.7,1.6,8.7,1.3c2.5-0.2,5.4-2.1,4.1-4.6
					c-0.6-1.1-1.8-1.5-3.1-1.9c-1.8-0.5-3.6-1-5.4-1.5c0.3,0.2,0.6,0.4,0.9,0.6c-0.1-0.1-0.2-0.2-0.3-0.3c0.1,0.3,0.1,0.7,0.2,1
					c3.2-9.1,5.6-18.4,7.2-27.9c0.1-0.7-0.2-1.4-1.1-1.6c-0.7-0.2-1.7,0.2-1.8,0.9c-1.2,7.2-2.8,14.2-5,21.2
					c-0.6,1.9-1.2,3.8-1.9,5.7c-0.3,0.8-0.6,1.4-0.1,2.2s1.4,0.9,2.4,1.1c1.1,0.3,2.1,0.6,3.2,0.9c0.5,0.1,2,0.3,2.1,0.9
					c0.1,1.3-4.1,0.9-4.9,0.7c-2.1-0.3-4-1-5.9-1.7c-1.3-0.5-2.6-0.9-3.9-1.5c0.2,0.5,0.5,1,0.7,1.4c1.7-7.8,3.2-15.7,4.6-23.5
					c0.7-4,1.3-7.9,1.9-11.9c0.6-3.8,1.3-7.7,1.3-11.6c0-4.1,0.2-8.2,1.3-12.2C84.9,54.6,82,53.9,81.6,55.5L81.6,55.5z"/>
			</g>
		</g>
	</g>
	<g>
		<g>
			<path class="st0" d="M25.1,55.5c-1,3.5-1.4,7-1.4,10.6c0,2,0,3.9-0.3,5.9c-0.2,1.9-0.5,3.8-0.8,5.7c-1.1,8-2.5,15.9-4.1,23.9
				c-0.8,4.4-1.7,8.7-2.6,13.1c-0.1,0.5,0.1,1.2,0.7,1.4c1.9,0.9,4,1.6,6.1,2.3c2.8,1,5.7,1.6,8.7,1.3c2.5-0.2,5.4-2.1,4.1-4.6
				c-0.6-1.1-1.8-1.5-3-1.9c-1.8-0.5-3.6-1-5.4-1.5c0.3,0.2,0.6,0.4,0.9,0.6c-0.1-0.1-0.2-0.2-0.3-0.3c0,0.3,0.1,0.7,0.1,1
				c2.3-6.6,4.3-13.2,5.7-20c0.7-3.3,1.3-6.7,1.8-10c0.3-1.8,0.3-3.7,0.8-5.5c-0.1,0.3-0.2,0.2,0,0.1c0.2-0.2,0.3-0.4,0.5-0.6
				c0.2-0.3,0.4-0.5,0.6-0.8c-0.9-0.1-1.8-0.2-2.7-0.3c3.4,9.4,8,18.5,13.7,27c2.9,4.3,6,8.4,9.4,12.4c0.7,0.8,1.4,1.9,2.3,2.6
				c1.1,0.8,2.6,0,3.7-0.4c1.4-0.5,2.8-1,4.2-1.5c1.3-0.5,2.8-0.9,4-1.5c2.3-1.2,3.2-4.2,0.6-5.6c-1.2-0.6-2.6-0.6-3.9-0.2
				c-1.3,0.4-2.9,1.7-4.4,1.4c0.3,0.2,0.6,0.4,0.9,0.6c-1-1.2-1.6-2.6-2.3-3.9c-0.9-1.6-1.8-3.2-2.6-4.7c-1.8-3.2-3.5-6.5-5.1-9.8
				c-3.2-6.6-5.9-13.3-7.6-20.3c-1-3.9-1.6-7.9-1.8-11.9c-0.9,0.2-1.9,0.4-2.8,0.6c1.9,2.9,4.5,5.4,7.2,7.7
				c2.8,2.4,6.8,6.1,11.3,5.2c4-0.8,5.5-5.2,3.3-8c-0.8-1.1-2.5-1.9-4-1.6c-0.9,0.2-1.8,0.4-2.7,0.6c0.4,0,0.8,0.1,1.2,0.1
				c-3-1.6-5.2-4.1-7.1-6.6c-1-1.3-2.1-2.6-2.7-4.1c-0.6-1.4-0.8-2.9-1.1-4.4c-0.4-2.8-0.7-5.6-2-8.3c-0.6-1.2-1.4-2.3-2.6-3.2
				c-0.7-0.6-1.3-1-2-1.7c0.1,0.4,0.3,0.8,0.4,1.2c0.4-1.3,2.9-1.7,4-2.5c0.7-0.5,1.1-1.1,1.4-1.8c0.3-0.8,0.3-1.6,0.6-2.3
				c0.3-0.6,1-1,1.3-1.5c0.5-0.8,0.4-1.7,0-2.4c-0.3-0.6-0.7-1.1-0.5-1.8c0.1-0.6,0.4-1.2,0.6-1.7c0.5-1.5,0.8-3.1,0-4.5
				c-0.8-1.5-2.2-2.5-3.9-3.1c-3.6-1.4-7.9-1.7-10.7,1.1c-3.2,3.2-2.9,7.6-2.3,11.5c0.2,1.6,2.9,1.7,3,0c0-0.1,0-0.1,0-0.1
				c-1,0.1-2,0.2-3,0.3c0.8,2.4-0.3,4.5-1.7,6.5c0.9,0.4,1.7,0.9,2.6,1.3c0.1-0.1,0.1-0.3,0.2-0.4c0.6-1.2-1.2-2.8-2.4-1.6
				c-7.3,7.7-12.2,17-14.2,26.7c-0.2,1.2-0.3,2.4-0.6,3.6c-0.3,0.9-0.7,1.9-1,2.8c-0.8,2.2-1.7,4.9,0.5,6.7c1.7,1.4,4.3,1,5.3-0.7
				c1-1.7,2.5-3.3,2.8-5.3c0.2-1.2,0.3-2.3,0.6-3.5c0.3-1.3,0.7-2.7,1.2-4c1.1-2.8,2.6-5.5,4.4-8.1c1-1.4-1.6-2.7-2.6-1.3
				c-2.8,3.8-4.8,8.1-5.9,12.5c-0.5,1.9-0.5,3.9-1.4,5.7c-0.4,0.7-0.9,1.3-1.3,2c-0.2,0.2-0.3,0.5-0.4,0.8c-0.1,0.1-0.1,0.3-0.2,0.4
				c-0.1,0.1,0.1,0,0-0.1c-0.1-0.1-0.3-0.1-0.5-0.3c-0.1-0.2-0.2-0.4-0.3-0.6c-0.1-0.5,0-0.9,0.1-1.4c0.3-1.3,0.9-2.5,1.4-3.8
				c0.6-1.7,0.8-3.6,1.1-5.3c1-4.3,2.4-8.4,4.5-12.4c2.3-4.5,5.2-8.7,8.8-12.5c-0.8-0.5-1.6-1-2.4-1.6c-0.1,0.1-0.1,0.3-0.2,0.4
				c-0.8,1.5,1.6,2.8,2.6,1.3c1.8-2.6,3-5.4,2-8.5c-0.5-1.4-2.9-1.1-3,0.3c0,0.1,0,0.1,0,0.1c1,0,2,0,3,0c-0.5-3.3-1.3-8.5,2.7-10.6
				c1.9-1,4.6-0.3,6.5,0.5c0.8,0.4,1.5,0.9,2,1.6c0.4,0.8,0.2,1.7-0.1,2.6c-0.4,1.4-1,2.7-0.6,4.1c0.1,0.4,0.4,0.8,0.6,1.2
				c0.3,0.5,0.2,0.3-0.1,0.7c-0.6,0.8-1.2,1.3-1.4,2.2c-0.2,0.8-0.2,1.7-0.9,2.3c-0.7,0.6-1.8,0.8-2.6,1.2c-1.5,0.8-3.3,2.4-2,3.9
				c0.8,1,2,1.5,2.8,2.5c1.2,1.3,1.7,3,2.1,4.6c0.9,3.6,0.7,7.5,2.6,10.9c1,1.7,2.3,3.4,3.7,4.9c1.3,1.5,2.6,2.9,4.3,4.2
				c0.7,0.5,1.6,1.2,2.5,1.6c0.6,0.2,1.2,0.1,1.8,0c0.5-0.1,1.1-0.2,1.7-0.3c0.1,0,0.4-0.1,0.5-0.1c-0.3,0,0.4,0.4,0.5,0.4
				c1.3,1.2,0.6,3.8-1.3,4.2c-2.5,0.6-4.9-1.5-6.5-2.7c-3.3-2.6-6.6-5.5-8.8-8.9c-0.7-1.1-2.9-0.6-2.8,0.6c0.5,10,3.5,19.6,7.6,28.9
				c2.1,4.7,4.5,9.3,6.9,13.9c1.2,2.2,2.4,4.4,3.7,6.7c0.5,0.8,0.8,1.8,1.5,2.5c0.8,0.9,2.1,1,3.3,0.7c1.5-0.3,2.7-1.3,4.2-1.6
				c0.4-0.1,0.9-0.1,1.1,0.3c0.3,0.5-0.6,1-1,1.2c-1.5,0.7-3.2,1.2-4.7,1.7c-0.7,0.3-1.5,0.5-2.2,0.8c-0.6,0.2-1.5,0.7-2.1,0.8
				c0.4,0.2,0.9,0.4,1.3,0.6c-11.1-12.3-19.5-26.3-24.9-41.1c-0.4-1.1-2-1.2-2.7-0.3c-0.3,0.4-0.6,0.7-0.9,1.1
				c-0.5,0.6-0.6,1.1-0.7,1.9c-0.3,2.3-0.7,4.7-1.1,7c-0.7,4.3-1.6,8.6-2.7,12.8c-1.1,4.4-2.4,8.7-3.9,13c-0.3,1-0.9,1.9-0.2,2.8
				c0.6,0.9,2.1,1,3.2,1.3c1.2,0.3,2.6,0.5,3.8,1c1.2,0.5-0.1,1.1-0.9,1.2c-2.6,0.4-5.3-0.3-7.7-1.2c-1.9-0.6-3.8-1.2-5.5-2.1
				c0.2,0.5,0.5,1,0.7,1.4c1.7-7.8,3.2-15.7,4.6-23.5c0.7-4,1.3-7.9,1.9-11.9c0.6-3.8,1.3-7.7,1.3-11.6c0-4.1,0.2-8.2,1.3-12.2
				C28.5,54.6,25.6,53.9,25.1,55.5L25.1,55.5z"/>
		</g>
	</g>
	<g>
		<g>
			<path class="st0" d="M138,55.5c-1,3.5-1.4,7-1.4,10.6c0,2,0,3.9-0.3,5.9c-0.2,1.9-0.5,3.8-0.8,5.7c-1.1,8-2.5,15.9-4.1,23.9
				c-0.8,4.4-1.7,8.7-2.6,13.1c-0.1,0.5,0.1,1.2,0.7,1.4c1.9,0.9,4,1.6,6.1,2.3c2.8,1,5.7,1.6,8.7,1.3c2.5-0.2,5.4-2.1,4.1-4.6
				c-0.6-1.1-1.8-1.5-3.1-1.9c-1.8-0.5-3.6-1-5.4-1.5c0.3,0.2,0.6,0.4,0.9,0.6c-0.1-0.1-0.2-0.2-0.3-0.3c0.1,0.3,0.1,0.7,0.1,1
				c2.3-6.6,4.3-13.2,5.7-20c0.7-3.3,1.3-6.7,1.8-10c0.3-1.8,0.3-3.7,0.8-5.5c-0.1,0.3-0.2,0.2,0,0.1c0.2-0.2,0.3-0.4,0.5-0.6
				c0.2-0.3,0.4-0.5,0.6-0.8c-0.9-0.1-1.8-0.2-2.7-0.3c3.4,9.4,8,18.5,13.7,27c2.9,4.3,6,8.4,9.4,12.4c0.7,0.8,1.4,1.9,2.3,2.6
				c1.1,0.8,2.6,0,3.7-0.4c1.4-0.5,2.8-1,4.2-1.5c1.3-0.5,2.8-0.9,4-1.5c2.3-1.2,3.2-4.2,0.6-5.6c-1.2-0.6-2.6-0.6-3.9-0.2
				c-1.3,0.4-2.9,1.7-4.4,1.4c0.3,0.2,0.6,0.4,0.9,0.6c-1-1.2-1.6-2.6-2.3-3.9c-0.9-1.6-1.8-3.2-2.6-4.7c-1.8-3.2-3.5-6.5-5.1-9.8
				c-3.1-6.6-5.9-13.3-7.6-20.3c-1-3.9-1.6-7.9-1.8-11.9c-0.9,0.2-1.9,0.4-2.8,0.6c1.9,2.9,4.5,5.4,7.2,7.7
				c2.8,2.4,6.8,6.1,11.3,5.2c4-0.8,5.5-5.2,3.4-8c-0.8-1.1-2.5-1.9-4-1.6c-0.9,0.2-1.8,0.4-2.7,0.6c0.4,0,0.8,0.1,1.2,0.1
				c-3-1.6-5.2-4.1-7.1-6.6c-1-1.3-2.1-2.6-2.7-4.1c-0.6-1.4-0.9-2.9-1.1-4.4c-0.4-2.8-0.7-5.6-2-8.3c-0.6-1.2-1.4-2.3-2.6-3.2
				c-0.7-0.6-1.4-1-2-1.7c0.1,0.4,0.3,0.8,0.4,1.2c0.4-1.3,2.9-1.7,4-2.5c0.7-0.5,1.1-1.1,1.4-1.8c0.3-0.8,0.3-1.6,0.6-2.3
				c0.3-0.6,1-1,1.3-1.5c0.5-0.8,0.4-1.7,0-2.4c-0.3-0.6-0.6-1.1-0.6-1.8c0.1-0.6,0.4-1.2,0.6-1.7c0.5-1.5,0.8-3.1,0-4.5
				c-0.8-1.5-2.2-2.5-3.9-3.1c-3.6-1.4-7.9-1.7-10.7,1.1c-3.2,3.2-2.9,7.6-2.3,11.5c0.2,1.6,2.9,1.7,3,0c0-0.1,0-0.1,0-0.1
				c-1,0.1-2,0.2-2.9,0.3c0.8,2.4-0.3,4.5-1.7,6.5c0.9,0.4,1.7,0.9,2.6,1.3c0.1-0.1,0.1-0.3,0.2-0.4c0.6-1.2-1.2-2.8-2.4-1.6
				c-7.3,7.7-12.2,17-14.2,26.7c-0.2,1.2-0.3,2.4-0.6,3.6c-0.3,0.9-0.7,1.9-1,2.8c-0.8,2.2-1.7,4.9,0.5,6.7c1.7,1.4,4.3,1,5.3-0.7
				c1-1.7,2.4-3.3,2.8-5.3c0.2-1.2,0.3-2.3,0.6-3.5c0.3-1.3,0.7-2.7,1.2-4c1.1-2.8,2.6-5.5,4.4-8.1c1-1.4-1.6-2.7-2.6-1.3
				c-2.8,3.8-4.8,8.1-5.9,12.5c-0.5,1.9-0.5,3.9-1.4,5.7c-0.4,0.7-0.9,1.3-1.3,2c-0.2,0.2-0.3,0.5-0.4,0.8c-0.1,0.1-0.1,0.3-0.2,0.4
				c-0.1,0.1,0.1,0,0-0.1c-0.1-0.1-0.3-0.1-0.5-0.3c-0.1-0.2-0.2-0.4-0.3-0.6c-0.1-0.5,0-0.9,0.1-1.4c0.3-1.3,0.9-2.5,1.4-3.8
				c0.6-1.7,0.8-3.6,1.1-5.3c0.9-4.3,2.4-8.4,4.5-12.4c2.3-4.5,5.2-8.7,8.8-12.5c-0.8-0.5-1.6-1-2.4-1.6c-0.1,0.1-0.1,0.3-0.2,0.4
				c-0.8,1.5,1.6,2.8,2.6,1.3c1.8-2.6,3-5.4,2-8.5c-0.4-1.4-2.9-1.1-2.9,0.3c0,0.1,0,0.1,0,0.1c1,0,2,0,3,0
				c-0.5-3.3-1.3-8.5,2.7-10.6c1.9-1,4.6-0.3,6.5,0.5c0.8,0.4,1.6,0.9,1.9,1.6c0.4,0.8,0.2,1.7-0.1,2.6c-0.4,1.4-1,2.7-0.6,4.1
				c0.1,0.4,0.4,0.8,0.6,1.2c0.3,0.5,0.2,0.3-0.1,0.7c-0.6,0.8-1.2,1.3-1.4,2.2c-0.2,0.8-0.2,1.7-0.9,2.3c-0.7,0.6-1.8,0.8-2.6,1.2
				c-1.5,0.8-3.3,2.4-2,3.9c0.8,1,2,1.5,2.8,2.5c1.1,1.3,1.7,3,2.1,4.6c0.9,3.6,0.7,7.5,2.6,10.9c1,1.7,2.3,3.4,3.7,4.9
				c1.3,1.5,2.6,2.9,4.3,4.2c0.7,0.5,1.6,1.2,2.4,1.6c0.6,0.2,1.2,0.1,1.8,0c0.6-0.1,1.1-0.2,1.7-0.3c0.1,0,0.4-0.1,0.5-0.1
				c-0.3,0,0.4,0.4,0.5,0.4c1.4,1.2,0.6,3.8-1.3,4.2c-2.4,0.6-4.9-1.5-6.5-2.7c-3.3-2.6-6.6-5.5-8.8-8.9c-0.7-1.1-2.9-0.6-2.8,0.6
				c0.5,10,3.5,19.6,7.6,28.9c2.1,4.7,4.5,9.3,6.9,13.9c1.2,2.2,2.4,4.4,3.7,6.7c0.5,0.8,0.8,1.8,1.5,2.5c0.8,0.9,2.1,1,3.4,0.7
				c1.5-0.3,2.7-1.3,4.2-1.6c0.4-0.1,0.9-0.1,1.1,0.3c0.3,0.5-0.6,1-1,1.2c-1.5,0.7-3.1,1.2-4.7,1.7c-0.7,0.3-1.5,0.5-2.2,0.8
				c-0.6,0.2-1.5,0.7-2.1,0.8c0.4,0.2,0.9,0.4,1.3,0.6c-11.1-12.3-19.5-26.3-24.9-41.1c-0.4-1.1-2-1.2-2.7-0.3
				c-0.3,0.4-0.6,0.7-0.9,1.1c-0.5,0.6-0.6,1.1-0.7,1.9c-0.3,2.3-0.7,4.7-1.1,7c-0.7,4.3-1.6,8.6-2.7,12.8c-1.1,4.4-2.4,8.7-3.9,13
				c-0.3,1-0.9,1.9-0.2,2.8c0.6,0.9,2.1,1,3.2,1.3c1.2,0.3,2.6,0.5,3.8,1c1.2,0.5-0.1,1.1-0.9,1.2c-2.6,0.4-5.3-0.3-7.7-1.2
				c-1.9-0.6-3.8-1.2-5.5-2.1c0.2,0.5,0.5,1,0.7,1.4c1.7-7.8,3.2-15.7,4.6-23.5c0.7-4,1.3-7.9,1.9-11.9c0.6-3.8,1.3-7.7,1.3-11.6
				c0-4.1,0.2-8.2,1.3-12.2C141.3,54.6,138.4,53.9,138,55.5L138,55.5z"/>
		</g>
	</g>
	<g>
		<path class="st0" d="M27.7,88.5c-3.7,0-7-1-10-3c-3.1-2.1-5.1-5.2-6-9.5c-0.6-2.9-0.9-5.9-0.9-8.9c0-3,0.3-6,0.9-8.8
			c1-4.4,3.1-7.6,6.5-9.6c3.2-1.9,6.4-2.8,9.6-2.8c4.5,0,8.3,1.2,11.3,3.6c3,2.4,4.8,5.8,5.5,10c0.1,0.6-0.1,1.1-0.5,1.5
			c-0.4,0.4-1,0.7-1.6,0.7h-9.7c-1.1,0-2-0.8-2.1-1.8c-0.1-1.2-0.5-2-1.1-2.7c-0.9-0.8-1.4-0.8-1.6-0.8c-0.4,0-1.3,0-2.2,1.9
			c-0.8,1.8-1.2,4.8-1.2,8.8c0,5.5,0.6,7.9,1.1,9c0.7,1.4,1.5,1.6,2.3,1.6c0.4,0,0.9-0.3,1.5-0.8c0.6-0.6,1.1-1.5,1.2-2.8
			c0.1-1,1-1.7,2.1-1.7h9.7c0.6,0,1.2,0.2,1.5,0.6c0.4,0.4,0.6,0.9,0.5,1.5c-0.4,3.8-2.1,7-5.1,9.7C36.5,87.1,32.5,88.5,27.7,88.5z"
			/>
		<path class="st0" d="M38,83.1c-2.6,2.4-6.1,3.5-10.3,3.5c-3.2,0-6.2-0.9-8.8-2.6c-2.6-1.8-4.4-4.5-5.2-8.3
			c-0.6-2.7-0.9-5.6-0.9-8.5c0-2.9,0.3-5.7,0.9-8.4c0.9-3.9,2.7-6.7,5.6-8.3s5.7-2.5,8.4-2.5c4,0,7.3,1.1,9.9,3.2
			c2.6,2.1,4.2,5.1,4.8,8.9h-9.7c-0.1-1.6-0.7-2.9-1.7-3.9s-2-1.4-3.1-1.4c-1.8,0-3.2,1-4.1,3.1c-0.9,2.1-1.4,5.2-1.4,9.5
			c0,4.7,0.4,7.9,1.3,9.8c0.9,1.9,2.3,2.8,4.2,2.8c0.9,0,1.9-0.5,2.9-1.4c1-0.9,1.6-2.2,1.8-3.9h9.7C42.1,77.9,40.7,80.7,38,83.1z"
			/>
		<path class="st0" d="M66.2,87.9c-0.5,0-1.1-0.2-1.4-0.5c-1.5-1.4-2.6-3.3-3.2-6.1c-0.5-2.2-1.1-4.3-1.7-6c-0.3-0.7-0.6-1.4-1-2
			c-0.1-0.1-0.2-0.2-0.2-0.3H58V83c0,1.5-0.7,2.8-1.9,3.7c-1.1,0.8-2.5,1.3-4,1.3h-5.8c-1.2,0-2.1-0.9-2.1-1.9V48.5
			c0-1.1,0.9-1.9,2.1-1.9H62c4.7,0,8.4,1.3,11.1,3.9c2.7,2.6,4.1,5.8,4.1,9.6c0,3.1-1.1,5.8-3.1,8.1c-0.9,1-1.9,1.8-2.8,2.5
			c0.1,0.1,0.2,0.2,0.3,0.4c0.7,0.8,1.2,1.8,1.6,3c0.7,2,1.6,4.1,2.4,6.4c0.8,2,1.6,3.5,2.5,4.3c0.6,0.6,0.8,1.4,0.4,2.1
			c-0.3,0.7-1.1,1.2-1.9,1.2L66.2,87.9L66.2,87.9z M61.5,62.9c0.3,0,0.8-0.1,1.3-0.6c0.5-0.5,0.7-1.2,0.7-2.2s-0.2-1.8-0.7-2.2
			c-0.5-0.5-0.9-0.6-1.3-0.6H58v5.7L61.5,62.9L61.5,62.9z"/>
		<path class="st0" d="M46.3,86V48.5H62c4.1,0,7.3,1.1,9.6,3.3c2.3,2.2,3.5,4.9,3.5,8.2c0,2.7-0.9,4.9-2.6,6.9
			c-1.8,1.9-3.4,2.9-5,3.1c1.1,0.7,1.9,1.4,2.4,2.1c0.5,0.7,1,1.5,1.3,2.5c0.8,2,1.6,4.2,2.4,6.5c0.9,2.3,1.9,4,3,5.1H66.2
			c-1.2-1.1-2.1-2.8-2.6-5.1c-0.5-2.3-1.1-4.4-1.8-6.2c-0.3-0.9-0.8-1.7-1.3-2.5c-0.5-0.7-1-1.1-1.5-1.1h-3.2V83
			c0,0.9-0.4,1.6-1.1,2.2S53.1,86,52.1,86C52.1,86,46.3,86,46.3,86z M65.5,60c0-1.5-0.4-2.7-1.2-3.5c-0.8-0.8-1.8-1.3-2.8-1.3h-5.6
			v9.5h5.6c1.1,0,2-0.4,2.8-1.3C65.1,62.7,65.5,61.5,65.5,60z"/>
		<path class="st0" d="M93.7,88.6c-4.5,0-8.4-1.3-11.5-4c-3.1-2.6-4.8-6.3-5.1-10.8c-0.1-2.1-0.2-4.3-0.2-6.7s0.1-4.6,0.2-6.6
			c0.3-4.3,1.9-7.8,5-10.6c3.1-2.8,7-4.2,11.5-4.2c4.8,0,8.7,1.5,11.7,4.3c2.9,2.8,4.5,6.3,4.8,10.5c0.2,2.1,0.2,4.3,0.2,6.6
			s-0.1,4.5-0.2,6.7c-0.3,4.2-1.8,7.7-4.6,10.4C102.8,87.2,98.8,88.6,93.7,88.6z M93.7,56.5c-0.5,0-1.2,0.1-1.9,1
			c-0.7,0.9-1.1,2.3-1.2,4c-0.1,1.4-0.1,3.4-0.1,5.9c0,2.5,0.1,4.4,0.1,5.5c0.1,1.7,0.5,3.1,1.2,4c0.7,0.9,1.3,1,1.9,1
			c0.8,0,1.4-0.2,1.8-0.9c0.4-0.6,0.9-1.9,1.1-4.4c0.1-1.8,0.2-3.8,0.2-6s0-4-0.1-5.3c-0.1-1.5-0.5-2.8-1.2-3.9
			C95,56.7,94.3,56.5,93.7,56.5z"/>
		<path class="st0" d="M108.1,60.8c0.2,2.1,0.2,4.2,0.2,6.5s-0.1,4.5-0.2,6.6c-0.3,3.8-1.6,6.8-4,9.3s-5.9,3.6-10.3,3.6
			c-4,0-7.3-1.1-10-3.4s-4.2-5.5-4.4-9.5c-0.1-2.1-0.2-4.3-0.2-6.6c0-2.4,0.1-4.5,0.2-6.4c0.2-3.8,1.7-6.9,4.4-9.3
			c2.7-2.4,6.1-3.6,10.1-3.6c4.2,0,7.6,1.2,10.1,3.7C106.4,54,107.8,57.1,108.1,60.8z M98.7,72.9c0.1-1.8,0.2-3.8,0.2-6.1
			c0-2.3,0-4-0.1-5.4c-0.1-1.8-0.6-3.4-1.5-4.8s-2.1-2.1-3.7-2.1c-1.4,0-2.6,0.6-3.6,1.9c-0.9,1.2-1.5,2.9-1.6,5
			c-0.1,1.5-0.1,3.5-0.1,6c0,2.5,0.1,4.4,0.1,5.6c0.1,2.1,0.7,3.8,1.6,5c0.9,1.3,2.1,1.9,3.6,1.9c1.6,0,2.8-0.6,3.6-1.8
			C98.1,77,98.6,75.3,98.7,72.9z"/>
		<path class="st0" d="M139,88.1c-0.9,0-1.8-0.6-2-1.4l-3.6-12.8L130.5,84c-0.4,1.4-1.2,2.5-2.4,3.2c-1.1,0.6-2.4,1-3.8,1h-4.9
			c-1,0-1.8-0.6-2-1.5l-9.9-37.7c-0.2-0.6,0-1.2,0.4-1.6c0.4-0.5,1-0.7,1.6-0.7h9.9c1,0,1.8,0.6,2.1,1.5l2.8,12l3.3-12.1
			c0.2-0.9,1.1-1.5,2-1.5h7.7c1,0,1.8,0.6,2,1.5l3.3,12l2.8-12c0.2-0.9,1.1-1.5,2-1.5h9.9c0.6,0,1.3,0.3,1.6,0.7
			c0.4,0.5,0.5,1.1,0.4,1.6l-9.2,35c-0.3,1.4-1.2,2.5-2.4,3.3c-1.1,0.6-2.4,1-3.8,1L139,88.1L139,88.1z"/>
		<path class="st0" d="M124,69.7c0.1-0.2,0.1-0.6,0.2-1.1c0.1-0.5,0.1-0.9,0.2-1.1l5.1-18.9h7.7l5.2,19.1c0.1,0.1,0.1,0.5,0.1,1
			c0,0.5,0.1,0.9,0.1,1c0.1-0.2,0.1-0.6,0.1-1.1s0.1-0.9,0.1-1l4.5-19h9.9l-9.2,35c-0.2,0.9-0.7,1.6-1.5,2.1
			c-0.8,0.4-1.7,0.7-2.7,0.7H139l-5.3-18.8c0-0.2-0.1-0.6-0.1-1.1s-0.1-0.9-0.2-1.1c-0.1,0.2-0.1,0.6-0.2,1.1
			c-0.1,0.5-0.1,0.9-0.2,1.1l-4.5,16c-0.3,0.9-0.8,1.6-1.5,2c-0.8,0.4-1.7,0.7-2.7,0.7h-4.9l-9.9-37.7h9.9l4.3,18.8
			c0.1,0.2,0.1,0.6,0.2,1.2C124,69,124,69.4,124,69.7z"/>
		<path class="st0" d="M162.8,87.9c-1.6,0-2.9-0.4-3.9-1.3c-1-0.9-1.5-2.1-1.5-3.6V48.5c0-1.1,0.9-1.9,2.1-1.9H174
			c4.6,0,8.5,1.3,11.6,3.9c3.1,2.6,4.8,6,5,10.1c0.1,1.5,0.2,3.6,0.2,6.4c0,2.9,0,5.2-0.2,6.8c-0.5,4.9-2.3,8.5-5.5,10.8
			c-3.1,2.2-6.8,3.3-11.1,3.3C174,87.9,162.8,87.9,162.8,87.9z M173.3,77.3c0.5,0,1.2-0.1,2.1-1c0.8-0.8,1.3-2.1,1.4-3.9
			c0.1-1.3,0.2-3.1,0.2-5.3c0-2.2-0.1-4-0.2-5.3c-0.1-1.3-0.5-2.5-1.3-3.6c-0.6-0.8-1.2-1.1-2.2-1.1h-2.1v20.2L173.3,77.3
			L173.3,77.3z"/>
		<path class="st0" d="M162.8,86c-1.1,0-1.9-0.3-2.4-0.8c-0.6-0.5-0.9-1.2-0.9-2.2V48.5H174c4.1,0,7.5,1.1,10.2,3.4s4.1,5.2,4.4,8.8
			c0.1,1.4,0.2,3.5,0.2,6.3c0,2.8,0,5-0.2,6.7c-0.4,4.3-2,7.5-4.7,9.4c-2.7,1.9-6,2.9-9.8,2.9H162.8z M178.9,72.7
			c0.2-1.4,0.2-3.2,0.2-5.5c0-2.3-0.1-4.1-0.2-5.4c-0.1-1.6-0.7-3.1-1.6-4.4c-1-1.3-2.3-2-4-2h-4.2v24h4.2c1.4,0,2.6-0.6,3.6-1.7
			C178,76.5,178.7,74.8,178.9,72.7z"/>
	</g>
	<g>
		<path class="st1" d="M38,83.1c-2.6,2.4-6.1,3.5-10.3,3.5c-3.2,0-6.2-0.9-8.8-2.6c-2.6-1.8-4.4-4.5-5.2-8.3
			c-0.6-2.7-0.9-5.6-0.9-8.5c0-2.9,0.3-5.7,0.9-8.4c0.9-3.9,2.7-6.7,5.6-8.3s5.7-2.5,8.4-2.5c4,0,7.3,1.1,9.9,3.2
			c2.6,2.1,4.2,5.1,4.8,8.9h-9.7c-0.1-1.6-0.7-2.9-1.7-3.9s-2-1.4-3.1-1.4c-1.8,0-3.2,1-4.1,3.1c-0.9,2.1-1.4,5.2-1.4,9.5
			c0,4.7,0.4,7.9,1.3,9.8c0.9,1.9,2.3,2.8,4.2,2.8c0.9,0,1.9-0.5,2.9-1.4c1-0.9,1.6-2.2,1.8-3.9h9.7C42.1,77.9,40.7,80.7,38,83.1z"
			/>
		<path class="st1" d="M46.3,86V48.5H62c4.1,0,7.3,1.1,9.6,3.3c2.3,2.2,3.5,4.9,3.5,8.2c0,2.7-0.9,4.9-2.6,6.9
			c-1.8,1.9-3.4,2.9-5,3.1c1.1,0.7,1.9,1.4,2.4,2.1c0.5,0.7,1,1.5,1.3,2.5c0.8,2,1.6,4.2,2.4,6.5c0.9,2.3,1.9,4,3,5.1H66.2
			c-1.2-1.1-2.1-2.8-2.6-5.1c-0.5-2.3-1.1-4.4-1.8-6.2c-0.3-0.9-0.8-1.7-1.3-2.5c-0.5-0.7-1-1.1-1.5-1.1h-3.2V83
			c0,0.9-0.4,1.6-1.1,2.2S53.1,86,52.1,86C52.1,86,46.3,86,46.3,86z M65.5,60c0-1.5-0.4-2.7-1.2-3.5c-0.8-0.8-1.8-1.3-2.8-1.3h-5.6
			v9.5h5.6c1.1,0,2-0.4,2.8-1.3C65.1,62.7,65.5,61.5,65.5,60z"/>
		<path class="st1" d="M108.1,60.8c0.2,2.1,0.2,4.2,0.2,6.5s-0.1,4.5-0.2,6.6c-0.3,3.8-1.6,6.8-4,9.3s-5.9,3.6-10.3,3.6
			c-4,0-7.3-1.1-10-3.4s-4.2-5.5-4.4-9.5c-0.1-2.1-0.2-4.3-0.2-6.6c0-2.4,0.1-4.5,0.2-6.4c0.2-3.8,1.7-6.9,4.4-9.3
			c2.7-2.4,6.1-3.6,10.1-3.6c4.2,0,7.6,1.2,10.1,3.7C106.4,54,107.8,57.1,108.1,60.8z M98.7,72.9c0.1-1.8,0.2-3.8,0.2-6.1
			c0-2.3,0-4-0.1-5.4c-0.1-1.8-0.6-3.4-1.5-4.8s-2.1-2.1-3.7-2.1c-1.4,0-2.6,0.6-3.6,1.9c-0.9,1.2-1.5,2.9-1.6,5
			c-0.1,1.5-0.1,3.5-0.1,6c0,2.5,0.1,4.4,0.1,5.6c0.1,2.1,0.7,3.8,1.6,5c0.9,1.3,2.1,1.9,3.6,1.9c1.6,0,2.8-0.6,3.6-1.8
			C98.1,77,98.6,75.3,98.7,72.9z"/>
		<path class="st1" d="M124,69.7c0.1-0.2,0.1-0.6,0.2-1.1c0.1-0.5,0.1-0.9,0.2-1.1l5.1-18.9h7.7l5.2,19.1c0.1,0.1,0.1,0.5,0.1,1
			c0,0.5,0.1,0.9,0.1,1c0.1-0.2,0.1-0.6,0.1-1.1s0.1-0.9,0.1-1l4.5-19h9.9l-9.2,35c-0.2,0.9-0.7,1.6-1.5,2.1
			c-0.8,0.4-1.7,0.7-2.7,0.7H139l-5.3-18.8c0-0.2-0.1-0.6-0.1-1.1s-0.1-0.9-0.2-1.1c-0.1,0.2-0.1,0.6-0.2,1.1
			c-0.1,0.5-0.1,0.9-0.2,1.1l-4.5,16c-0.3,0.9-0.8,1.6-1.5,2c-0.8,0.4-1.7,0.7-2.7,0.7h-4.9l-9.9-37.7h9.9l4.3,18.8
			c0.1,0.2,0.1,0.6,0.2,1.2C124,69,124,69.4,124,69.7z"/>
		<path class="st1" d="M162.8,86c-1.1,0-1.9-0.3-2.4-0.8c-0.6-0.5-0.9-1.2-0.9-2.2V48.5H174c4.1,0,7.5,1.1,10.2,3.4s4.1,5.2,4.4,8.8
			c0.1,1.4,0.2,3.5,0.2,6.3c0,2.8,0,5-0.2,6.7c-0.4,4.3-2,7.5-4.7,9.4c-2.7,1.9-6,2.9-9.8,2.9H162.8z M178.9,72.7
			c0.2-1.4,0.2-3.2,0.2-5.5c0-2.3-0.1-4.1-0.2-5.4c-0.1-1.6-0.7-3.1-1.6-4.4c-1-1.3-2.3-2-4-2h-4.2v24h4.2c1.4,0,2.6-0.6,3.6-1.7
			C178,76.5,178.7,74.8,178.9,72.7z"/>
	</g>
</g>
</svg>
